# xmcd
#
# Track frame offsets:
#	150
#	36900
#	52425
#	71475
#	88725
#	109125
#	126375
#	143775
#	166125
#	186075
#	200175
#	216750
#
# Disc length: 3160 seconds
#
# Revision: 1
# Processed by: cddbd v1.5.2PL0 Copyright (c) Steve Scherf et al.
# Submitted via: audiograbber 1.83.01
#
DISCID=bf0c560c
DTITLE=Anita Ward - The Anita Ward Album
DYEAR=1979
DGENRE=R&B
TTITLE0=Ring My Bell (Long Version)
TTITLE1=Make Beliebe Lovers
TTITLE2=If I Could Feel That Old Feeling Again
TTITLE3=Spoiled By Your Love
TTITLE4=I Won't Stop Loving You
TTITLE5=Sweet Splendour
TTITLE6=There's No Doubt About It
TTITLE7=You Lied
TTITLE8=I'm Ready For Your Love
TTITLE9=Curtains Up
TTITLE10=This Must Be Love
TTITLE11=Ring My Bell (Short Version)
EXTD=
EXTT0=
EXTT1=
EXTT2=
EXTT3=
EXTT4=
EXTT5=
EXTT6=
EXTT7=
EXTT8=
EXTT9=
EXTT10=
EXTT11=
PLAYORDER=
